name C:\Users\r0593348\3dpredictsim\Results\MidTarsalJoint\Fal_s1_bCst_PF_Natali2010_ls150_MT_k250_d010_MTP_T5_ig21.mot
datacolumns 128
datarows 4
range 1.71152458 1.74575507
endheader
time	pelvis_tilt	pelvis_list	pelvis_rotation	pelvis_tx	pelvis_ty	pelvis_tz	hip_flexion_l	hip_adduction_l	hip_rotation_l	hip_flexion_r	hip_adduction_r	hip_rotation_r	knee_angle_l	knee_angle_r	ankle_angle_l	ankle_angle_r	subtalar_angle_l	subtalar_angle_r	mtj_angle_l	mtj_angle_r	mtp_angle_l	mtp_angle_r	lumbar_extension	lumbar_bending	lumbar_rotation	arm_flex_l	arm_add_l	arm_rot_l	arm_flex_r	arm_add_r	arm_rot_r	elbow_flex_l	elbow_flex_r	pro_sup_l	pro_sup_r	glut_med1_l/activation	glut_med2_l/activation	glut_med3_l/activation	glut_min1_l/activation	glut_min2_l/activation	glut_min3_l/activation	semimem_l/activation	semiten_l/activation	bifemlh_l/activation	bifemsh_l/activation	sar_l/activation	add_long_l/activation	add_brev_l/activation	add_mag1_l/activation	add_mag2_l/activation	add_mag3_l/activation	tfl_l/activation	pect_l/activation	grac_l/activation	glut_max1_l/activation	glut_max2_l/activation	glut_max3_l/activation	iliacus_l/activation	psoas_l/activation	quad_fem_l/activation	gem_l/activation	peri_l/activation	rect_fem_l/activation	vas_med_l/activation	vas_int_l/activation	vas_lat_l/activation	med_gas_l/activation	lat_gas_l/activation	soleus_l/activation	tib_post_l/activation	flex_dig_l/activation	flex_hal_l/activation	tib_ant_l/activation	per_brev_l/activation	per_long_l/activation	per_tert_l/activation	ext_dig_l/activation	ext_hal_l/activation	ercspn_l/activation	intobl_l/activation	extobl_l/activation	glut_med1_r/activation	glut_med2_r/activation	glut_med3_r/activation	glut_min1_r/activation	glut_min2_r/activation	glut_min3_r/activation	semimem_r/activation	semiten_r/activation	bifemlh_r/activation	bifemsh_r/activation	sar_r/activation	add_long_r/activation	add_brev_r/activation	add_mag1_r/activation	add_mag2_r/activation	add_mag3_r/activation	tfl_r/activation	pect_r/activation	grac_r/activation	glut_max1_r/activation	glut_max2_r/activation	glut_max3_r/activation	iliacus_r/activation	psoas_r/activation	quad_fem_r/activation	gem_r/activation	peri_r/activation	rect_fem_r/activation	vas_med_r/activation	vas_int_r/activation	vas_lat_r/activation	med_gas_r/activation	lat_gas_r/activation	soleus_r/activation	tib_post_r/activation	flex_dig_r/activation	flex_hal_r/activation	tib_ant_r/activation	per_brev_r/activation	per_long_r/activation	per_tert_r/activation	ext_dig_r/activation	ext_hal_r/activation	ercspn_r/activation	intobl_r/activation	extobl_r/activation	
          1.71152458	         -2.93016500	          2.21357649	         -5.56543541	          2.13940573	          0.91871166	          0.00179339	         29.34287520	          3.41302803	         -2.43003234	        -16.73314167	         -1.24367847	          6.62037037	        -11.06716390	         -8.47891342	          5.31291879	         -2.51259672	         -4.48335614	          8.67474226	         -0.03333976	          5.55643381	         -0.84877073	         10.36171196	         -1.95741779	         -0.33000599	          2.09809553	         -4.65405682	        -13.45307238	          7.53411899	          5.27478769	        -13.45449470	         17.28413624	         15.85368306	         33.85869533	         86.51662706	         86.51662706	          0.05950843	          0.05950844	          0.05000014	          0.05950849	          0.05950848	          0.05949659	          0.13810586	          0.06119074	          0.20867015	          0.05000163	          0.05000015	          0.14208246	          0.28179295	          0.12030883	          0.17002858	          0.10423560	          0.05000009	          0.05103768	          0.12242756	          0.05000066	          0.05076857	          0.15174891	          0.05000062	          0.05000010	          0.21106248	          0.27663292	          0.13648354	          0.05000028	          0.12247739	          0.12093844	          0.10869377	          0.06013088	          0.05425809	          0.05672246	          0.05000002	          0.05000046	          0.05000018	          0.50751635	          0.25176293	          0.16435783	          0.22089676	          0.45684193	          0.21249799	          0.05770019	          0.11842657	          0.10060278	          0.25140253	          0.10032526	          0.07666763	          0.28413209	          0.19226237	          0.10800935	          0.05000097	          0.05000020	          0.05000012	          0.05657491	          0.10746335	          0.07577701	          0.05535370	          0.05000099	          0.05000193	          0.05000060	          0.30223836	          0.06591897	          0.05000104	          0.05000181	          0.05000120	          0.05000115	          0.41032358	          0.62371399	          0.05000015	          0.05000031	          0.05000093	          0.24765351	          0.05000164	          0.05000146	          0.05000117	          0.28360976	          0.38458427	          0.34211531	          0.27304136	          0.25057959	          0.33365092	          0.05000003	          0.05950836	          0.12288360	          0.05000023	          0.05000005	          0.05000020	          0.05000001	          0.05000012	          0.05140438	
          1.72293474	         -2.92827224	          2.29013367	         -5.84263232	          2.15664867	          0.91776820	          0.00160037	         28.69130751	          3.75972157	         -2.19151662	        -16.66842375	         -1.54044663	          6.42358417	        -11.31918476	        -10.28271485	          4.64086122	         -3.04622222	         -4.85786949	          9.64272316	         -0.02885959	          4.63026219	         -0.85311735	         12.10552175	         -1.75419468	         -0.52040044	          2.16676347	         -5.56005678	        -13.44970804	          7.28283172	          4.97593513	        -13.46343498	         17.57216969	         15.47954113	         35.05617834	         86.51662706	         86.51662706	          0.05000000	          0.05000003	          0.10177954	          0.05000004	          0.05000004	          0.05000005	          0.11603890	          0.05141352	          0.17532814	          0.05000008	          0.05064391	          0.11938035	          0.27639512	          0.30838476	          0.20244149	          0.10996811	          0.05000037	          0.07082723	          0.12477889	          0.05000979	          0.08467564	          0.12750233	          0.05000011	          0.05952720	          0.47253524	          0.23243158	          0.11467577	          0.05951344	          0.14394179	          0.14326907	          0.12495235	          0.06012957	          0.06041948	          0.05000004	          0.05950853	          0.05000335	          0.05950844	          0.47130705	          0.28000967	          0.20447322	          0.18560124	          0.42604261	          0.17854438	          0.05000000	          0.09950397	          0.08452812	          0.21123261	          0.08429496	          0.06441749	          0.23873260	          0.16154208	          0.09075129	          0.05000170	          0.05000040	          0.05000053	          0.05000014	          0.09029272	          0.15994682	          0.05934508	          0.05950890	          0.05950594	          0.05950842	          0.25394578	          0.06383434	          0.05003910	          0.05000409	          0.05000258	          0.05000488	          0.34476074	          0.58330198	          0.05105613	          0.05951102	          0.05950914	          0.20808263	          0.12124643	          0.13026956	          0.14493630	          0.23829361	          0.32313409	          0.29285186	          0.23132293	          0.21054149	          0.28033949	          0.05000002	          0.05000010	          0.13322428	          0.05000007	          0.05000002	          0.05000011	          0.05745208	          0.06436689	          0.05950854	
          1.73434491	         -2.92239475	          2.37014616	         -6.08750489	          2.17420262	          0.91687538	          0.00142713	         27.91562373	          4.01585915	         -1.92604175	        -16.54432024	         -1.83710284	          6.21980921	        -11.82452823	        -12.17145609	          4.11284825	         -3.71547280	         -5.24850867	         10.56598758	         -0.24496989	          3.53921507	         -0.85711718	         13.95451597	         -1.52899056	         -0.72324214	          2.22352789	         -6.49697506	        -13.45416325	          7.08554937	          4.59264187	        -13.46947214	         17.77557973	         15.16432332	         36.24331743	         86.51662706	         86.51662706	          0.23337233	          0.23731717	          0.29284911	          0.35281018	          0.23261410	          0.21540195	          0.10369976	          0.05839955	          0.14731377	          0.08429332	          0.05000180	          0.10030538	          0.23223179	          0.25911005	          0.17009482	          0.11090812	          0.05000034	          0.05951098	          0.10484183	          0.05000036	          0.10033372	          0.10712969	          0.05783831	          0.05001588	          0.39703196	          0.19529295	          0.21711359	          0.05000420	          0.12094232	          0.12037709	          0.10498707	          0.05052195	          0.05076556	          0.05103544	          0.05000012	          0.05000030	          0.05000044	          0.54467289	          0.32972915	          0.17185102	          0.34056210	          0.49621777	          0.15015293	          0.05936160	          0.11940270	          0.07102193	          0.32541709	          0.07082605	          0.05412475	          0.31882244	          0.13573042	          0.07625078	          0.05000116	          0.05000015	          0.05000012	          0.05000025	          0.07586598	          0.13439003	          0.05000023	          0.05000055	          0.05000057	          0.05000039	          0.23905568	          0.05363662	          0.05000074	          0.05000327	          0.05000148	          0.05000064	          0.28967381	          0.55526100	          0.05000027	          0.05000251	          0.05000069	          0.17483449	          0.10187338	          0.10945476	          0.12177798	          0.20021824	          0.27150262	          0.24605898	          0.19436139	          0.17690054	          0.23554597	          0.05000002	          0.09294033	          0.15632046	          0.05000015	          0.05000012	          0.05000018	          0.05000005	          0.05408213	          0.05000008	
          1.74575507	         -2.91484617	          2.44325851	         -6.29549584	          2.19184377	          0.91606861	          0.00123065	         27.09352587	          4.24773020	         -1.66142421	        -16.31833355	         -2.12260046	          6.02840254	        -12.29234381	        -14.19333150	          3.61469088	         -4.53826872	         -5.64221989	         11.45108203	         -0.18809121	          2.34290513	         -0.81882917	         15.80456098	         -1.30653460	         -0.92717041	          2.27089837	         -7.41634090	        -13.45937946	          6.94282990	          4.16236834	        -13.48152999	         17.92091865	         14.88566293	         37.40197871	         86.51662706	         86.51662706	          0.33135049	          0.33005142	          0.35195037	          0.29643712	          0.19544764	          0.19904854	          0.08796921	          0.07975199	          0.12377557	          0.07082479	          0.05000051	          0.08427827	          0.19512503	          0.21770872	          0.14291745	          0.15347544	          0.05000024	          0.05000256	          0.08809025	          0.20587932	          0.17138412	          0.14775633	          0.05000005	          0.05000005	          0.33359285	          0.16408842	          0.18242265	          0.05000004	          0.12637719	          0.14160247	          0.10237377	          0.05000002	          0.05000004	          0.05000000	          0.05000001	          0.05000007	          0.05000008	          0.60304563	          0.29784179	          0.16249027	          0.56110725	          0.53424093	          0.26946865	          0.07899650	          0.10032413	          0.05967381	          0.29026628	          0.05950924	          0.05000010	          0.26788028	          0.11404300	          0.06406720	          0.05000171	          0.05000017	          0.05000016	          0.05000012	          0.06374404	          0.14054902	          0.05004521	          0.05000298	          0.05000321	          0.05000144	          0.20085884	          0.06005843	          0.05000089	          0.05000203	          0.05000127	          0.05000095	          0.24338876	          0.50846337	          0.05000021	          0.05000067	          0.05000015	          0.14689884	          0.11940243	          0.11940243	          0.11940245	          0.16822667	          0.22812100	          0.20674282	          0.16330569	          0.14863484	          0.19790968	          0.07108379	          0.11400010	          0.15328934	          0.05000037	          0.11884324	          0.05000053	          0.07453630	          0.05000000	          0.05000002	
